<svg xmlns="http://www.w3.org/2000/svg" width="12" height="16" viewBox="0 0 12 16">
  <g id="geo-alt" transform="translate(-2)">
    <path id="Path_3" data-name="Path 3" d="M12.166,8.94a19.226,19.226,0,0,1-1.96,3.07A31.493,31.493,0,0,1,8,14.58a31.482,31.482,0,0,1-2.206-2.57,19.225,19.225,0,0,1-1.96-3.07A6.919,6.919,0,0,1,3,6,5,5,0,0,1,13,6a6.933,6.933,0,0,1-.834,2.94ZM8,16s6-5.686,6-10A6,6,0,1,0,2,6C2,10.314,8,16,8,16Z" fill="#0665b3"/>
    <path id="Path_4" data-name="Path 4" d="M8,8a2,2,0,1,1,2-2A2,2,0,0,1,8,8ZM8,9A3,3,0,1,0,5,6,3,3,0,0,0,8,9Z" fill="#0665b3"/>
  </g>
</svg>
