<svg xmlns="http://www.w3.org/2000/svg" width="16" height="12.004" viewBox="0 0 16 12.004">
  <path id="truck" d="M0,3.5A1.5,1.5,0,0,1,1.5,2h9A1.5,1.5,0,0,1,12,3.5V5h1.02a1.5,1.5,0,0,1,1.17.563l1.481,1.85A1.5,1.5,0,0,1,16,8.351V10.5A1.5,1.5,0,0,1,14.5,12H14a2,2,0,0,1-4,0H5a2,2,0,1,1-4-.085A1.5,1.5,0,0,1,0,10.5Zm1.294,7.456A2,2,0,0,1,4.732,11h5.536A2.01,2.01,0,0,1,11,10.268V3.5a.5.5,0,0,0-.5-.5h-9a.5.5,0,0,0-.5.5v7a.5.5,0,0,0,.294.456ZM12,10a2,2,0,0,1,1.732,1H14.5a.5.5,0,0,0,.5-.5V8.35a.5.5,0,0,0-.11-.312l-1.48-1.85A.5.5,0,0,0,13.02,6H12ZM3,11a1,1,0,1,0,1,1A1,1,0,0,0,3,11Zm9,0a1,1,0,1,0,1,1A1,1,0,0,0,12,11Z" transform="translate(0 -2)" fill="#0665b3"/>
</svg>
